# xmcd
# 
# Track frame offsets:
#     150
#     13245
#     24015
#     39747
#     53080
#     68092
#     78520
#     93695
#     105157
#     118465
# 
# Disc length: 1714
# 
# Revision: 5
# Processed by: cddbd v1.5.2PL0 Copyright (c) Steve Scherf et al.
# Submitted via: BonkEnc v1.0.8
# 
DISCID=7b06b00a
DTITLE=Paul Bley - Closer
DYEAR=1965
DGENRE=Jazz
TTITLE0=Ida Lupino
TTITLE1=Start
TTITLE2=Closer
TTITLE3=Sideways In Mexico
TTITLE4=Batterie
TTITLE5=And Now The Queen
TTITLE6=Pigfoot
TTITLE7=Crossroads
TTITLE8=Violin
TTITLE9=Cartoon
EXTD=YEAR: 1965
EXTT0=
EXTT1=
EXTT2=
EXTT3=
EXTT4=
EXTT5=
EXTT6=
EXTT7=
EXTT8=
EXTT9=
PLAYORDER=
